<svg id="Layer_1" data-name="Layer 1" xmlns="http://www.w3.org/2000/svg" viewBox="0 0 527.34 130"><defs><style>.cls-1,.cls-2{fill:#336177;}.cls-2,.cls-4,.cls-5,.cls-6{fill-rule:evenodd;}.cls-3{fill:#00c3f2;}.cls-4{fill:#248fb4;}.cls-5{fill:#43b02a;}.cls-6{fill:#ff9200;}</style></defs><title>Tempo</title><path class="cls-1" d="M192.28,103.44h-20V43.49H151.41V26.56h61.75V43.49H192.28Z"/><path class="cls-1" d="M240.54,43.49V56.33h26.52V73.26H240.54V86.52h27.74v16.92H220.55V26.56h47.72V43.49Z"/><path class="cls-1" d="M289.08,26.56h19.68l15.6,41.09,16.52-41.09h19.88l11.63,76.87h-20l-5.61-44.25h-.2l-18.45,44.25h-8L302.53,59.19h-.2l-6.42,44.25H276Z"/><path class="cls-1" d="M380.13,26.56h30.59c16.52,0,27.94,7.65,27.94,25.28,0,18.15-9.79,26.1-27.22,26.1H400.11v25.49h-20Zm20,35.28h3.36c7.24,0,14.38,0,14.38-9.38,0-9.69-6.63-9.79-14.38-9.79h-3.36Z"/><path class="cls-1" d="M526.64,63.57c0,24.88-17.84,42.41-42.51,42.41s-42.52-17.54-42.52-42.41C441.61,40.33,462,24,484.12,24S526.64,40.33,526.64,63.57Zm-64.23.1c0,13.25,9.79,22.94,21.72,22.94s21.71-9.69,21.71-22.94c0-10.6-9.79-20.29-21.71-20.29S462.41,53.07,462.41,63.68Z"/><path class="cls-2" d="M79.59,45.9,61.85,63.63a1.56,1.56,0,0,1-2.21,0L52.3,56.3a1.56,1.56,0,0,0-2.21,0l-8.44,8.44a1.56,1.56,0,0,0,0,2.21L59.75,85A1.56,1.56,0,0,0,62,85L90.35,56.66a1.56,1.56,0,0,0,0-2.21L81.8,45.9A1.56,1.56,0,0,0,79.59,45.9Z"/><path class="cls-3" d="M65,9.18A55.82,55.82,0,1,0,120.82,65,55.88,55.88,0,0,0,65,9.18Zm0,15A40.81,40.81,0,1,1,24.19,65,40.81,40.81,0,0,1,65,24.19Z"/><path class="cls-4" d="M65,9.5a55.61,55.61,0,0,1,10.5,1L65,0A65,65,0,0,0,0,65L10.5,54.5A55.6,55.6,0,0,1,65,9.5Z"/><path class="cls-4" d="M119.5,75.5a55.52,55.52,0,0,1-65,44L65,130a65,65,0,0,0,65-65Z"/><path class="cls-5" d="M120.5,65a55.64,55.64,0,0,1-1,10.5L130,65A65,65,0,0,0,65,0L75.5,10.5A55.6,55.6,0,0,1,120.5,65Z"/><path class="cls-6" d="M9.5,65a55.64,55.64,0,0,1,1-10.5L0,65a65,65,0,0,0,65,65L54.5,119.5A55.59,55.59,0,0,1,9.5,65Z"/></svg>